<mxfile host="app.diagrams.net" modified="2023-09-06T09:42:19.763Z" agent="Mozilla/5.0 (Windows NT 10.0; Win64; x64) AppleWebKit/537.36 (KHTML, like Gecko) Chrome/118.0.0.0 Safari/537.36" etag="ShixJ6Uu6ZjK8q5UFLvs" version="21.7.2" type="github">
  <diagram id="C5RBs43oDa-KdzZeNtuy" name="Page-1">
    <mxGraphModel dx="1500" dy="757" grid="1" gridSize="10" guides="1" tooltips="1" connect="1" arrows="1" fold="1" page="1" pageScale="1" pageWidth="827" pageHeight="1169" math="0" shadow="0">
      <root>
        <mxCell id="WIyWlLk6GJQsqaUBKTNV-0" />
        <mxCell id="WIyWlLk6GJQsqaUBKTNV-1" parent="WIyWlLk6GJQsqaUBKTNV-0" />
        <mxCell id="NPwazJtCrYggnpJLHFTz-0" value="&lt;font style=&quot;font-size: 14px;&quot;&gt;Parent&lt;/font&gt;" style="swimlane;fontStyle=1;align=center;verticalAlign=top;childLayout=stackLayout;horizontal=1;startSize=26;horizontalStack=0;resizeParent=1;resizeParentMax=0;resizeLast=0;collapsible=1;marginBottom=0;whiteSpace=wrap;html=1;labelBackgroundColor=none;fillColor=#F2CC8F;strokeColor=#E07A5F;fontColor=#393C56;" vertex="1" parent="WIyWlLk6GJQsqaUBKTNV-1">
          <mxGeometry x="70" y="150" width="250" height="150" as="geometry" />
        </mxCell>
        <mxCell id="NPwazJtCrYggnpJLHFTz-1" value="&lt;font style=&quot;font-size: 18px;&quot;&gt;+ creditCardNo&lt;br&gt;+ CVV&lt;br&gt;+ Name&lt;/font&gt;" style="text;strokeColor=none;fillColor=none;align=left;verticalAlign=top;spacingLeft=4;spacingRight=4;overflow=hidden;rotatable=0;points=[[0,0.5],[1,0.5]];portConstraint=eastwest;whiteSpace=wrap;html=1;labelBackgroundColor=none;fontColor=#393C56;" vertex="1" parent="NPwazJtCrYggnpJLHFTz-0">
          <mxGeometry y="26" width="250" height="84" as="geometry" />
        </mxCell>
        <mxCell id="NPwazJtCrYggnpJLHFTz-2" value="" style="line;strokeWidth=1;fillColor=none;align=left;verticalAlign=middle;spacingTop=-1;spacingLeft=3;spacingRight=3;rotatable=0;labelPosition=right;points=[];portConstraint=eastwest;strokeColor=#E07A5F;labelBackgroundColor=none;fontColor=#393C56;" vertex="1" parent="NPwazJtCrYggnpJLHFTz-0">
          <mxGeometry y="110" width="250" height="8" as="geometry" />
        </mxCell>
        <mxCell id="NPwazJtCrYggnpJLHFTz-3" value="&lt;font style=&quot;font-size: 18px;&quot;&gt;+ Building : void&lt;/font&gt;" style="text;strokeColor=none;fillColor=none;align=left;verticalAlign=top;spacingLeft=4;spacingRight=4;overflow=hidden;rotatable=0;points=[[0,0.5],[1,0.5]];portConstraint=eastwest;whiteSpace=wrap;html=1;labelBackgroundColor=none;fontColor=#393C56;" vertex="1" parent="NPwazJtCrYggnpJLHFTz-0">
          <mxGeometry y="118" width="250" height="32" as="geometry" />
        </mxCell>
        <mxCell id="NPwazJtCrYggnpJLHFTz-8" value="&lt;font style=&quot;font-size: 14px;&quot;&gt;Child&lt;/font&gt;" style="swimlane;fontStyle=1;align=center;verticalAlign=top;childLayout=stackLayout;horizontal=1;startSize=26;horizontalStack=0;resizeParent=1;resizeParentMax=0;resizeLast=0;collapsible=1;marginBottom=0;whiteSpace=wrap;html=1;labelBackgroundColor=none;fillColor=#F2CC8F;strokeColor=#E07A5F;fontColor=#393C56;" vertex="1" parent="WIyWlLk6GJQsqaUBKTNV-1">
          <mxGeometry x="440" y="260" width="250" height="130" as="geometry" />
        </mxCell>
        <mxCell id="NPwazJtCrYggnpJLHFTz-9" value="&lt;font style=&quot;font-size: 18px;&quot;&gt;+ Name&lt;br&gt;+ GfName&lt;br&gt;&lt;/font&gt;" style="text;strokeColor=none;fillColor=none;align=left;verticalAlign=top;spacingLeft=4;spacingRight=4;overflow=hidden;rotatable=0;points=[[0,0.5],[1,0.5]];portConstraint=eastwest;whiteSpace=wrap;html=1;labelBackgroundColor=none;fontColor=#393C56;" vertex="1" parent="NPwazJtCrYggnpJLHFTz-8">
          <mxGeometry y="26" width="250" height="64" as="geometry" />
        </mxCell>
        <mxCell id="NPwazJtCrYggnpJLHFTz-10" value="" style="line;strokeWidth=1;fillColor=none;align=left;verticalAlign=middle;spacingTop=-1;spacingLeft=3;spacingRight=3;rotatable=0;labelPosition=right;points=[];portConstraint=eastwest;strokeColor=#E07A5F;labelBackgroundColor=none;fontColor=#393C56;" vertex="1" parent="NPwazJtCrYggnpJLHFTz-8">
          <mxGeometry y="90" width="250" height="8" as="geometry" />
        </mxCell>
        <mxCell id="NPwazJtCrYggnpJLHFTz-11" value="&lt;font style=&quot;font-size: 18px;&quot;&gt;+ Building : void&lt;/font&gt;" style="text;strokeColor=none;fillColor=none;align=left;verticalAlign=top;spacingLeft=4;spacingRight=4;overflow=hidden;rotatable=0;points=[[0,0.5],[1,0.5]];portConstraint=eastwest;whiteSpace=wrap;html=1;labelBackgroundColor=none;fontColor=#393C56;" vertex="1" parent="NPwazJtCrYggnpJLHFTz-8">
          <mxGeometry y="98" width="250" height="32" as="geometry" />
        </mxCell>
        <mxCell id="NPwazJtCrYggnpJLHFTz-12" value="" style="endArrow=open;endFill=1;endSize=12;html=1;rounded=0;entryX=1.015;entryY=0.259;entryDx=0;entryDy=0;entryPerimeter=0;exitX=0.551;exitY=-0.018;exitDx=0;exitDy=0;exitPerimeter=0;labelBackgroundColor=none;strokeColor=#E07A5F;fontColor=default;" edge="1" parent="WIyWlLk6GJQsqaUBKTNV-1" source="NPwazJtCrYggnpJLHFTz-8" target="NPwazJtCrYggnpJLHFTz-1">
          <mxGeometry width="160" relative="1" as="geometry">
            <mxPoint x="600" y="200" as="sourcePoint" />
            <mxPoint x="560" y="190" as="targetPoint" />
            <Array as="points">
              <mxPoint x="578" y="200" />
            </Array>
          </mxGeometry>
        </mxCell>
        <mxCell id="NPwazJtCrYggnpJLHFTz-13" value="extends" style="text;align=center;fontStyle=1;verticalAlign=middle;spacingLeft=3;spacingRight=3;strokeColor=none;rotatable=0;points=[[0,0.5],[1,0.5]];portConstraint=eastwest;html=1;labelBackgroundColor=none;fontColor=#393C56;" vertex="1" parent="WIyWlLk6GJQsqaUBKTNV-1">
          <mxGeometry x="440" y="170" width="80" height="26" as="geometry" />
        </mxCell>
        <mxCell id="NPwazJtCrYggnpJLHFTz-14" value="&lt;font style=&quot;font-size: 18px;&quot;&gt;Parent&amp;nbsp; &amp;nbsp;obj=new Parent();&lt;br&gt;&lt;/font&gt;" style="text;align=center;fontStyle=1;verticalAlign=middle;spacingLeft=3;spacingRight=3;strokeColor=none;rotatable=0;points=[[0,0.5],[1,0.5]];portConstraint=eastwest;html=1;labelBackgroundColor=none;fontColor=#393C56;" vertex="1" parent="WIyWlLk6GJQsqaUBKTNV-1">
          <mxGeometry x="60" y="320" width="260" height="70" as="geometry" />
        </mxCell>
        <mxCell id="NPwazJtCrYggnpJLHFTz-15" value="&lt;font style=&quot;font-size: 18px;&quot;&gt;Parent pobj=new Child();&amp;nbsp; &amp;nbsp; //Overriding&lt;/font&gt;" style="text;align=center;fontStyle=1;verticalAlign=middle;spacingLeft=3;spacingRight=3;strokeColor=none;rotatable=0;points=[[0,0.5],[1,0.5]];portConstraint=eastwest;html=1;labelBackgroundColor=none;fontColor=#393C56;" vertex="1" parent="WIyWlLk6GJQsqaUBKTNV-1">
          <mxGeometry x="140" y="500" width="470" height="70" as="geometry" />
        </mxCell>
        <mxCell id="NPwazJtCrYggnpJLHFTz-16" value="&lt;font style=&quot;font-size: 18px;&quot;&gt;Child obj2=new Child();&lt;br&gt;&lt;/font&gt;" style="text;align=center;fontStyle=1;verticalAlign=middle;spacingLeft=3;spacingRight=3;strokeColor=none;rotatable=0;points=[[0,0.5],[1,0.5]];portConstraint=eastwest;html=1;labelBackgroundColor=none;fontColor=#393C56;" vertex="1" parent="WIyWlLk6GJQsqaUBKTNV-1">
          <mxGeometry x="450" y="410" width="260" height="70" as="geometry" />
        </mxCell>
        <mxCell id="NPwazJtCrYggnpJLHFTz-17" value="&lt;p style=&quot;margin:0px;margin-top:4px;text-align:center;text-decoration:underline;&quot;&gt;&lt;b&gt;&lt;font style=&quot;font-size: 18px;&quot;&gt;pObj:Parent&lt;/font&gt;&lt;/b&gt;&lt;/p&gt;&lt;hr&gt;&lt;p style=&quot;margin:0px;margin-left:8px;&quot;&gt;&lt;font size=&quot;3&quot;&gt;+ creditCardNo&lt;br style=&quot;border-color: var(--border-color);&quot;&gt;+ CVV&lt;br style=&quot;border-color: var(--border-color);&quot;&gt;+ Name&amp;nbsp; (updated by child)&lt;/font&gt;&lt;br&gt;&lt;/p&gt;&lt;p style=&quot;margin:0px;margin-left:8px;&quot;&gt;&lt;font size=&quot;3&quot;&gt;&lt;br&gt;&lt;/font&gt;&lt;/p&gt;&lt;p style=&quot;margin:0px;margin-left:8px;&quot;&gt;&lt;font size=&quot;3&quot;&gt;&lt;br&gt;&lt;/font&gt;&lt;/p&gt;" style="verticalAlign=top;align=left;overflow=fill;fontSize=12;fontFamily=Helvetica;html=1;whiteSpace=wrap;labelBackgroundColor=none;fillColor=#F2CC8F;strokeColor=#E07A5F;fontColor=#393C56;" vertex="1" parent="WIyWlLk6GJQsqaUBKTNV-1">
          <mxGeometry x="210" y="580" width="210" height="110" as="geometry" />
        </mxCell>
        <mxCell id="NPwazJtCrYggnpJLHFTz-18" value="" style="html=1;points=[[0,0,0,0,5],[0,1,0,0,-5],[1,0,0,0,5],[1,1,0,0,-5]];perimeter=orthogonalPerimeter;outlineConnect=0;targetShapes=umlLifeline;portConstraint=eastwest;newEdgeStyle={&quot;curved&quot;:0,&quot;rounded&quot;:0};labelBackgroundColor=none;fillColor=#F2CC8F;strokeColor=#E07A5F;fontColor=#393C56;" vertex="1" parent="WIyWlLk6GJQsqaUBKTNV-1">
          <mxGeometry x="210" y="690" width="210" height="60" as="geometry" />
        </mxCell>
        <mxCell id="NPwazJtCrYggnpJLHFTz-19" value="&lt;font style=&quot;font-size: 18px;&quot;&gt;+ Building : void &lt;br&gt;(updated by child)&lt;/font&gt;" style="text;align=center;fontStyle=1;verticalAlign=middle;spacingLeft=3;spacingRight=3;strokeColor=none;rotatable=0;points=[[0,0.5],[1,0.5]];portConstraint=eastwest;html=1;labelBackgroundColor=none;fontColor=#393C56;" vertex="1" parent="WIyWlLk6GJQsqaUBKTNV-1">
          <mxGeometry x="210" y="690" width="210" height="60" as="geometry" />
        </mxCell>
      </root>
    </mxGraphModel>
  </diagram>
</mxfile>
